<?xml version="1.0" encoding="utf-8"?>
<!-- Generator: Adobe Illustrator 18.1.1, SVG Export Plug-In . SVG Version: 6.00 Build 0)  -->
<svg version="1.1" id="Layer_1" xmlns="http://www.w3.org/2000/svg" xmlns:xlink="http://www.w3.org/1999/xlink" x="0px" y="0px"
	 viewBox="0 0 55.3 79" enable-background="new 0 0 55.3 79" xml:space="preserve">
<path fill-rule="evenodd" clip-rule="evenodd" fill="#D3D3D3" d="M55.2,52.3c0,0,3.1-36.5-33.1-51.9c0,0-4.7-2.1-3.1,3.1
	c1.6,5.2,8.9,14-2,22.1c-0.4,0.3-2.2,1.4-2.9,1.8"/>
<path fill-rule="evenodd" clip-rule="evenodd" fill="#D3D3D3" d="M27.6,23.8C12.4,23.8,0,36.2,0,51.4C0,66.7,12.4,79,27.6,79
	c11.5,0,21.4-7,25.5-17c1.4-3.3,2.1-6.8,2.1-10.6C55.2,36.2,42.9,23.8,27.6,23.8z M27.6,61.3c-5,0-9-4-9-9s4-9,9-9s9,4,9,9
	S32.6,61.3,27.6,61.3z"/>
</svg>
